<?xml version="1.0" standalone="no"?>
<!DOCTYPE svg PUBLIC "-//W3C//DTD SVG 20010904//EN"
 "http://www.w3.org/TR/2001/REC-SVG-20010904/DTD/svg10.dtd">
<svg version="1.0" xmlns="http://www.w3.org/2000/svg"
 width="700.000000pt" height="700.000000pt" viewBox="0 0 700.000000 700.000000"
 preserveAspectRatio="xMidYMid meet">
<metadata>
Created by potrace 1.14, written by Peter Selinger 2001-2017
</metadata>
<g transform="translate(0.000000,700.000000) scale(0.100000,-0.100000)"
fill="#000000" stroke="none">
<path d="M2910 6994 c-8 -1 -62 -10 -120 -19 -485 -77 -925 -365 -1193 -781
-59 -90 -133 -239 -168 -334 l-27 -75 -102 -28 c-498 -134 -909 -480 -1131
-952 -110 -235 -160 -452 -164 -710 -2 -93 1 -197 6 -230 4 -33 11 -80 14
-105 3 -25 15 -79 26 -120 11 -41 21 -82 23 -90 45 -183 215 -494 349 -637
l30 -32 -26 -98 c-44 -166 -60 -286 -60 -448 0 -98 10 -252 17 -264 2 -3 7
-28 10 -56 20 -150 101 -373 200 -550 199 -358 536 -648 916 -788 220 -82 418
-115 654 -111 108 2 154 6 302 30 28 4 39 -3 105 -69 284 -282 662 -462 1059
-502 61 -6 286 -6 340 -1 109 12 135 17 250 42 363 80 734 315 973 619 26 33
51 65 55 70 65 86 176 297 216 412 l24 67 99 26 c369 100 681 306 917 605 61
77 156 217 156 229 0 4 10 23 23 44 56 89 132 299 166 457 31 142 36 198 35
385 -1 167 -7 220 -50 424 -12 61 -78 235 -124 331 -40 83 -158 277 -179 295
-4 3 -26 29 -50 58 l-43 52 25 103 c50 199 60 282 59 473 -5 651 -391 1263
-981 1554 -161 79 -369 145 -521 165 -25 3 -63 8 -85 11 -40 6 -297 6 -345 1
-14 -2 -64 -9 -113 -17 l-87 -13 -64 65 c-257 263 -596 436 -981 499 -62 11
-396 20 -435 13z m300 -459 c146 -11 303 -57 455 -132 88 -43 245 -146 245
-161 0 -4 -30 -24 -68 -44 -37 -21 -89 -51 -117 -67 -27 -17 -61 -36 -75 -44
-14 -7 -140 -80 -280 -161 -140 -81 -401 -232 -579 -334 -178 -103 -337 -200
-353 -216 -68 -67 -62 15 -68 -1104 l-5 -1013 -135 79 c-74 43 -162 94 -195
113 -33 18 -73 42 -90 51 -33 20 -115 66 -152 86 l-24 13 4 897 c2 493 7 915
11 937 15 78 47 198 70 259 178 471 621 806 1116 843 41 3 76 6 77 7 3 2 77
-2 163 -9z m1777 -559 c326 -62 622 -244 810 -499 77 -104 83 -113 134 -217
79 -156 129 -362 133 -544 2 -83 -10 -234 -18 -244 -2 -1 -70 37 -152 84 -82
48 -165 96 -184 106 -19 11 -93 54 -165 96 -71 41 -143 83 -160 92 -53 30
-480 278 -516 299 -19 11 -41 24 -49 28 -8 4 -62 34 -120 68 -118 68 -158 83
-213 79 -55 -5 -91 -23 -400 -203 -153 -88 -281 -161 -284 -161 -4 0 -14 -6
-22 -14 -9 -7 -38 -26 -66 -41 -27 -15 -241 -138 -475 -272 -233 -135 -440
-255 -460 -266 -19 -10 -44 -26 -55 -33 -11 -8 -23 -14 -27 -14 -10 0 -10 671
0 686 4 6 32 24 62 41 30 16 152 86 270 155 118 69 235 136 260 150 25 14 101
58 170 98 69 40 139 80 155 90 72 41 376 217 440 254 188 110 375 176 545 192
36 4 66 8 68 9 9 8 253 -6 319 -19z m-3672 -1542 c1 -622 4 -849 13 -879 22
-73 68 -109 335 -259 59 -33 218 -125 310 -180 43 -25 80 -46 82 -46 2 0 60
-34 130 -75 69 -41 128 -75 131 -75 2 0 23 -11 45 -26 22 -14 56 -34 75 -45
19 -10 49 -27 67 -38 32 -18 322 -186 387 -224 19 -11 49 -28 65 -37 92 -49
163 -95 160 -101 -3 -4 -40 -27 -82 -51 -43 -24 -169 -97 -281 -162 -112 -64
-209 -119 -216 -122 -7 -3 -112 52 -232 122 -120 69 -244 140 -274 157 -30 16
-102 58 -160 92 -58 35 -123 73 -145 85 -22 12 -112 64 -200 115 -88 51 -176
102 -195 113 -136 76 -272 159 -328 198 -90 64 -245 222 -310 316 -86 126
-171 316 -192 428 -1 3 -5 23 -11 45 -31 129 -33 390 -5 525 75 352 274 647
563 837 86 57 241 134 257 130 6 -2 10 -326 11 -843z m3426 260 c206 -119 394
-228 419 -242 25 -14 57 -32 72 -41 27 -16 235 -135 273 -157 109 -61 324
-190 371 -221 276 -188 483 -522 539 -870 15 -91 15 -339 1 -408 -4 -16 -9
-43 -12 -60 -14 -77 -69 -229 -114 -318 -128 -255 -329 -455 -583 -583 -60
-30 -114 -54 -120 -54 -9 0 -12 208 -12 849 l0 848 -23 49 c-14 30 -40 61 -65
80 -34 25 -253 154 -483 285 -54 30 -89 50 -259 149 -88 51 -174 101 -192 111
-17 10 -50 29 -72 43 -22 15 -42 26 -45 26 -2 0 -66 37 -142 81 -77 45 -179
104 -229 133 -49 28 -102 57 -116 66 -14 8 -61 35 -104 59 l-78 44 24 18 c13
10 27 19 31 19 4 0 31 15 60 33 29 19 78 47 108 64 30 16 86 48 124 71 37 23
69 42 71 42 2 0 41 22 87 50 45 27 86 49 89 50 4 0 175 -97 380 -216z m-1169
-386 c68 -39 132 -76 143 -82 11 -6 125 -72 253 -146 l232 -134 0 -437 0 -437
-112 -65 c-542 -313 -641 -368 -652 -364 -8 3 -110 61 -227 130 -118 68 -283
163 -366 211 l-153 88 0 437 0 437 276 159 c152 88 299 173 327 189 27 15 71
41 96 56 25 16 49 29 53 29 4 1 62 -31 130 -71z m1053 -608 c151 -86 472 -274
482 -281 8 -7 10 -238 9 -902 -2 -491 -6 -903 -10 -917 -3 -14 -9 -41 -12 -60
-3 -19 -14 -67 -25 -106 -99 -362 -361 -673 -700 -832 -447 -210 -967 -156
-1351 141 -36 27 -48 47 -29 47 5 0 267 149 582 332 316 182 633 365 705 407
166 96 180 106 212 161 l27 45 2 895 c1 492 3 948 3 1013 l0 119 38 -22 c20
-13 51 -30 67 -40z m-425 -1344 l0 -345 -97 -56 c-54 -31 -105 -60 -113 -65
-14 -9 -927 -535 -1150 -663 -143 -82 -280 -142 -372 -163 -10 -2 -28 -6 -40
-9 -167 -37 -398 -40 -555 -6 -156 33 -286 84 -428 169 -71 43 -63 37 -150
110 -236 198 -393 465 -451 770 -11 54 -20 185 -18 258 1 69 12 185 18 191 1
1 92 -50 201 -113 207 -120 231 -134 352 -202 39 -23 212 -123 385 -223 172
-100 329 -191 348 -201 19 -11 64 -37 100 -58 142 -82 187 -78 381 35 61 36
129 76 152 89 23 13 114 65 202 116 88 51 250 145 360 208 110 63 214 123 230
133 17 10 48 29 70 41 22 12 49 28 60 35 11 6 36 20 55 31 19 10 69 39 110 63
41 25 82 48 90 52 8 4 67 38 130 76 63 38 118 69 123 70 4 1 7 -154 7 -343z"/>
</g>
</svg>
