<svg width="61" height="61" viewBox="0 0 61 61" fill="none" xmlns="http://www.w3.org/2000/svg">
<path d="M56.0787 24.9024C56.7607 22.8541 56.9973 20.6838 56.7726 18.5367C56.5479 16.3896 55.8672 14.3153 54.776 12.4525C53.1583 9.63509 50.6874 7.4044 47.7197 6.08236C44.752 4.76033 41.4411 4.4153 38.2646 5.09707C36.8318 3.48239 35.0706 2.19238 33.0989 1.31339C31.1273 0.434405 28.9906 -0.0132811 26.8319 0.000299997C23.5842 -0.00753852 20.4179 1.01619 17.7895 2.92388C15.1611 4.83157 13.2065 7.52466 12.2073 10.6149C10.0916 11.048 8.09283 11.928 6.34478 13.1961C4.59673 14.4642 3.13974 16.0912 2.07136 17.968C0.440798 20.7776 -0.255224 24.0326 0.0836812 27.2634C0.422586 30.4942 1.7789 33.5339 3.95701 35.944C3.27501 37.9923 3.03843 40.1626 3.26309 42.3097C3.48775 44.4568 4.16847 46.5311 5.25969 48.3939C6.8775 51.2112 9.34846 53.4417 12.3161 54.7638C15.2837 56.0858 18.5946 56.4309 21.7711 55.7493C23.2039 57.364 24.9651 58.654 26.9367 59.533C28.9084 60.412 31.0451 60.8597 33.2038 60.8461C36.4531 60.8545 39.621 59.8304 42.2504 57.9215C44.8799 56.0126 46.8348 53.3176 47.8332 50.2255C49.9489 49.7924 51.9477 48.9124 53.6957 47.6443C55.4438 46.3761 56.9007 44.7492 57.9691 42.8724C59.5976 40.0629 60.2921 36.8089 59.9523 33.5793C59.6126 30.3498 58.2562 27.3115 56.0787 24.9024ZM33.2086 56.8685C30.5413 56.8722 27.9577 55.9381 25.9095 54.2295C26.0018 54.1791 26.1638 54.0904 26.2693 54.0256L38.3845 47.0276C38.6886 46.8546 38.9411 46.6037 39.1161 46.3008C39.2911 45.9978 39.3822 45.6537 39.3801 45.3039V28.2239L44.5009 31.1807C44.5277 31.1941 44.5509 31.2139 44.5683 31.2384C44.5856 31.2629 44.5967 31.2913 44.6004 31.321V45.4658C44.5966 48.4869 43.3956 51.3834 41.2603 53.5207C39.125 55.658 36.2297 56.8618 33.2086 56.8685ZM8.70952 46.405C7.37349 44.0966 6.89197 41.3918 7.34926 38.7641C7.43923 38.8181 7.59636 38.914 7.70912 38.9788L19.8243 45.9768C20.1262 46.1532 20.4696 46.2462 20.8193 46.2462C21.169 46.2462 21.5124 46.1532 21.8143 45.9768L36.6056 37.4362V43.3499C36.6073 43.38 36.6015 43.4102 36.5888 43.4376C36.576 43.465 36.5567 43.4889 36.5325 43.507L24.2853 50.5782C21.6657 52.0869 18.5545 52.4948 15.6345 51.7125C12.7144 50.9301 10.224 49.0214 8.70952 46.405ZM5.52239 19.9568C6.85263 17.6452 8.9537 15.8754 11.4576 14.9571C11.4576 15.0615 11.4516 15.2462 11.4516 15.3746V29.3706C11.4495 29.7202 11.5405 30.064 11.7153 30.3667C11.89 30.6694 12.1423 30.9202 12.446 31.0931L27.2373 39.6325L22.1166 42.5894C22.0913 42.606 22.0623 42.6161 22.0322 42.6188C22.002 42.6216 21.9717 42.6168 21.9439 42.6049L9.69553 35.5278C7.08048 34.0133 5.17266 31.5238 4.39038 28.6049C3.60809 25.686 4.01518 22.576 5.52239 19.9568ZM47.5945 29.7473L32.8031 21.2067L37.9239 18.251C37.9492 18.2344 37.9782 18.2243 38.0083 18.2216C38.0384 18.2188 38.0688 18.2236 38.0966 18.2354L50.345 25.3066C52.2214 26.3905 53.7502 27.9866 54.7524 29.908C55.7546 31.8293 56.1887 33.9964 56.0038 36.1556C55.8189 38.3147 55.0227 40.3764 53.7085 42.0994C52.3942 43.8224 50.6163 45.1353 48.5829 45.8844C48.5829 45.7789 48.5829 45.5942 48.5829 45.4658V31.4698C48.5857 31.1208 48.4957 30.7773 48.322 30.4746C48.1483 30.1719 47.8972 29.9209 47.5945 29.7473ZM52.6912 22.0763C52.6013 22.0211 52.4441 21.9264 52.3314 21.8616L40.2162 14.8636C39.9142 14.6874 39.5708 14.5945 39.2212 14.5945C38.8715 14.5945 38.5282 14.6874 38.2262 14.8636L23.4349 23.4042V17.4905C23.4332 17.4603 23.439 17.4302 23.4517 17.4028C23.4645 17.3754 23.4838 17.3515 23.508 17.3334L35.7552 10.2682C37.6314 9.18633 39.777 8.66111 41.9408 8.754C44.1046 8.84689 46.1972 9.55405 47.9739 10.7927C49.7505 12.0314 51.1377 13.7505 51.9731 15.7487C52.8085 17.7469 53.0576 19.9417 52.6912 22.0763ZM20.6508 32.6165L15.5288 29.6597C15.5019 29.6463 15.4788 29.6265 15.4614 29.602C15.4441 29.5775 15.433 29.5491 15.4292 29.5194V15.3746C15.4307 13.2082 16.0491 11.0869 17.2123 9.25924C18.3755 7.43154 20.0352 5.97297 21.9972 5.05427C23.9592 4.13557 26.1423 3.79474 28.2909 4.07169C30.4396 4.34863 32.4649 5.23189 34.1298 6.61807C34.0374 6.66845 33.8767 6.75721 33.77 6.82199L21.6548 13.82C21.3508 13.9928 21.0983 14.2435 20.9233 14.5462C20.7483 14.849 20.6572 15.1928 20.6592 15.5425L20.6508 32.6165ZM23.4325 26.6189L30.0202 22.814L36.608 26.6165V34.2239L30.0202 38.0264L23.4325 34.2239V26.6189Z" fill="white"/>
</svg>
